<mxfile host="Electron" modified="2024-03-15T01:34:47.521Z" agent="Mozilla/5.0 (Windows NT 10.0; Win64; x64) AppleWebKit/537.36 (KHTML, like Gecko) draw.io/21.2.1 Chrome/112.0.5615.87 Electron/24.1.2 Safari/537.36" etag="3TExb5bZsaK9RTALu40R" version="21.2.1" type="device">
  <diagram name="第 1 页" id="q2MmdKpxe81tEegyug4n">
    <mxGraphModel dx="2044" dy="2066" grid="1" gridSize="10" guides="1" tooltips="1" connect="1" arrows="1" fold="1" page="1" pageScale="1" pageWidth="1600" pageHeight="900" math="0" shadow="0">
      <root>
        <mxCell id="0" />
        <mxCell id="1" parent="0" />
        <mxCell id="8cDULGTI0yvlnEvUJcVY-23" value="&lt;font style=&quot;font-size: 28px;&quot;&gt;E&lt;br&gt;A&lt;br&gt;R&lt;br&gt;N&lt;br&gt;&lt;br&gt;M&lt;br&gt;O&lt;br&gt;N&lt;br&gt;E&lt;br&gt;Y&lt;/font&gt;" style="rounded=0;whiteSpace=wrap;html=1;fillColor=#ffe6cc;strokeColor=#d79b00;" vertex="1" parent="1">
          <mxGeometry width="80" height="900" as="geometry" />
        </mxCell>
        <mxCell id="8cDULGTI0yvlnEvUJcVY-24" value="&lt;font style=&quot;font-size: 28px;&quot;&gt;Quit&lt;br&gt;&lt;/font&gt;" style="rounded=0;whiteSpace=wrap;html=1;fillColor=#f8cecc;strokeColor=#b85450;" vertex="1" parent="1">
          <mxGeometry y="880" width="1600" height="20" as="geometry" />
        </mxCell>
        <mxCell id="8cDULGTI0yvlnEvUJcVY-25" value="Card title" style="swimlane;whiteSpace=wrap;html=1;" vertex="1" parent="1">
          <mxGeometry x="270" y="480" width="250" height="250" as="geometry" />
        </mxCell>
        <mxCell id="8cDULGTI0yvlnEvUJcVY-26" value="Card title" style="swimlane;whiteSpace=wrap;html=1;" vertex="1" parent="1">
          <mxGeometry x="620" y="480" width="250" height="250" as="geometry" />
        </mxCell>
        <mxCell id="8cDULGTI0yvlnEvUJcVY-27" value="Card title" style="swimlane;whiteSpace=wrap;html=1;" vertex="1" parent="1">
          <mxGeometry x="970" y="480" width="250" height="250" as="geometry" />
        </mxCell>
        <mxCell id="8cDULGTI0yvlnEvUJcVY-28" value="Card title" style="swimlane;whiteSpace=wrap;html=1;" vertex="1" parent="1">
          <mxGeometry x="270" y="180" width="250" height="250" as="geometry" />
        </mxCell>
        <mxCell id="8cDULGTI0yvlnEvUJcVY-29" value="Card title" style="swimlane;whiteSpace=wrap;html=1;" vertex="1" parent="1">
          <mxGeometry x="620" y="180" width="250" height="250" as="geometry" />
        </mxCell>
        <mxCell id="8cDULGTI0yvlnEvUJcVY-30" value="Card title" style="swimlane;whiteSpace=wrap;html=1;" vertex="1" parent="1">
          <mxGeometry x="970" y="180" width="250" height="250" as="geometry" />
        </mxCell>
        <mxCell id="8cDULGTI0yvlnEvUJcVY-31" value="Card title" style="swimlane;whiteSpace=wrap;html=1;" vertex="1" parent="1">
          <mxGeometry x="270" y="-130" width="250" height="250" as="geometry" />
        </mxCell>
        <mxCell id="8cDULGTI0yvlnEvUJcVY-32" value="Card title" style="swimlane;whiteSpace=wrap;html=1;" vertex="1" parent="1">
          <mxGeometry x="620" y="-130" width="250" height="250" as="geometry" />
        </mxCell>
        <mxCell id="8cDULGTI0yvlnEvUJcVY-33" value="Card title" style="swimlane;whiteSpace=wrap;html=1;" vertex="1" parent="1">
          <mxGeometry x="970" y="-130" width="250" height="250" as="geometry" />
        </mxCell>
        <mxCell id="8cDULGTI0yvlnEvUJcVY-34" value="$10" style="rounded=0;whiteSpace=wrap;html=1;" vertex="1" parent="1">
          <mxGeometry x="335" y="730" width="115" height="20" as="geometry" />
        </mxCell>
        <mxCell id="8cDULGTI0yvlnEvUJcVY-36" value="$50" style="rounded=0;whiteSpace=wrap;html=1;" vertex="1" parent="1">
          <mxGeometry x="337.5" y="430" width="115" height="20" as="geometry" />
        </mxCell>
        <mxCell id="8cDULGTI0yvlnEvUJcVY-37" value="$100" style="rounded=0;whiteSpace=wrap;html=1;" vertex="1" parent="1">
          <mxGeometry x="335" y="120" width="115" height="20" as="geometry" />
        </mxCell>
        <mxCell id="8cDULGTI0yvlnEvUJcVY-38" value="$10" style="rounded=0;whiteSpace=wrap;html=1;" vertex="1" parent="1">
          <mxGeometry x="686.25" y="730" width="115" height="20" as="geometry" />
        </mxCell>
        <mxCell id="8cDULGTI0yvlnEvUJcVY-39" value="$10" style="rounded=0;whiteSpace=wrap;html=1;" vertex="1" parent="1">
          <mxGeometry x="688.75" y="430" width="115" height="20" as="geometry" />
        </mxCell>
        <mxCell id="8cDULGTI0yvlnEvUJcVY-40" value="$10" style="rounded=0;whiteSpace=wrap;html=1;" vertex="1" parent="1">
          <mxGeometry x="686.25" y="120" width="115" height="20" as="geometry" />
        </mxCell>
        <mxCell id="8cDULGTI0yvlnEvUJcVY-41" value="$10" style="rounded=0;whiteSpace=wrap;html=1;" vertex="1" parent="1">
          <mxGeometry x="1036.25" y="730" width="115" height="20" as="geometry" />
        </mxCell>
        <mxCell id="8cDULGTI0yvlnEvUJcVY-42" value="$10" style="rounded=0;whiteSpace=wrap;html=1;" vertex="1" parent="1">
          <mxGeometry x="1038.75" y="430" width="115" height="20" as="geometry" />
        </mxCell>
        <mxCell id="8cDULGTI0yvlnEvUJcVY-43" value="$10" style="rounded=0;whiteSpace=wrap;html=1;" vertex="1" parent="1">
          <mxGeometry x="1036.25" y="120" width="115" height="20" as="geometry" />
        </mxCell>
        <mxCell id="8cDULGTI0yvlnEvUJcVY-44" value="Today&#39;s Revenue" style="swimlane;whiteSpace=wrap;html=1;" vertex="1" parent="1">
          <mxGeometry x="1320" y="10" width="250" height="70" as="geometry" />
        </mxCell>
        <mxCell id="8cDULGTI0yvlnEvUJcVY-45" value="Lifetime revenue" style="swimlane;whiteSpace=wrap;html=1;" vertex="1" parent="1">
          <mxGeometry x="1320" y="100" width="250" height="70" as="geometry" />
        </mxCell>
        <mxCell id="8cDULGTI0yvlnEvUJcVY-46" value="Lifetime revenue" style="swimlane;whiteSpace=wrap;html=1;" vertex="1" parent="1">
          <mxGeometry x="1320" y="190" width="250" height="270" as="geometry" />
        </mxCell>
        <mxCell id="8cDULGTI0yvlnEvUJcVY-53" value="" style="childLayout=tableLayout;recursiveResize=0;shadow=0;fillColor=none;" vertex="1" parent="8cDULGTI0yvlnEvUJcVY-46">
          <mxGeometry x="5" y="30" width="237" height="220" as="geometry" />
        </mxCell>
        <mxCell id="8cDULGTI0yvlnEvUJcVY-104" style="shape=tableRow;horizontal=0;startSize=0;swimlaneHead=0;swimlaneBody=0;top=0;left=0;bottom=0;right=0;dropTarget=0;collapsible=0;recursiveResize=0;expand=0;fontStyle=0;fillColor=none;strokeColor=inherit;" vertex="1" parent="8cDULGTI0yvlnEvUJcVY-53">
          <mxGeometry width="237" height="20" as="geometry" />
        </mxCell>
        <mxCell id="8cDULGTI0yvlnEvUJcVY-105" style="connectable=0;recursiveResize=0;strokeColor=#82b366;fillColor=#d5e8d4;align=center;whiteSpace=wrap;html=1;" vertex="1" parent="8cDULGTI0yvlnEvUJcVY-104">
          <mxGeometry width="34" height="20" as="geometry">
            <mxRectangle width="34" height="20" as="alternateBounds" />
          </mxGeometry>
        </mxCell>
        <mxCell id="8cDULGTI0yvlnEvUJcVY-106" style="connectable=0;recursiveResize=0;strokeColor=#b85450;fillColor=#f8cecc;align=center;whiteSpace=wrap;html=1;" vertex="1" parent="8cDULGTI0yvlnEvUJcVY-104">
          <mxGeometry x="34" width="34" height="20" as="geometry">
            <mxRectangle width="34" height="20" as="alternateBounds" />
          </mxGeometry>
        </mxCell>
        <mxCell id="8cDULGTI0yvlnEvUJcVY-107" style="connectable=0;recursiveResize=0;strokeColor=#82b366;fillColor=#d5e8d4;align=center;whiteSpace=wrap;html=1;" vertex="1" parent="8cDULGTI0yvlnEvUJcVY-104">
          <mxGeometry x="68" width="33" height="20" as="geometry">
            <mxRectangle width="33" height="20" as="alternateBounds" />
          </mxGeometry>
        </mxCell>
        <mxCell id="8cDULGTI0yvlnEvUJcVY-108" style="connectable=0;recursiveResize=0;strokeColor=#82b366;fillColor=#d5e8d4;align=center;whiteSpace=wrap;html=1;" vertex="1" parent="8cDULGTI0yvlnEvUJcVY-104">
          <mxGeometry x="101" width="34" height="20" as="geometry">
            <mxRectangle width="34" height="20" as="alternateBounds" />
          </mxGeometry>
        </mxCell>
        <mxCell id="8cDULGTI0yvlnEvUJcVY-109" style="connectable=0;recursiveResize=0;strokeColor=#b85450;fillColor=#f8cecc;align=center;whiteSpace=wrap;html=1;" vertex="1" parent="8cDULGTI0yvlnEvUJcVY-104">
          <mxGeometry x="135" width="34" height="20" as="geometry">
            <mxRectangle width="34" height="20" as="alternateBounds" />
          </mxGeometry>
        </mxCell>
        <mxCell id="8cDULGTI0yvlnEvUJcVY-120" style="connectable=0;recursiveResize=0;strokeColor=#b85450;fillColor=#f8cecc;align=center;whiteSpace=wrap;html=1;" vertex="1" parent="8cDULGTI0yvlnEvUJcVY-104">
          <mxGeometry x="169" width="34" height="20" as="geometry">
            <mxRectangle width="34" height="20" as="alternateBounds" />
          </mxGeometry>
        </mxCell>
        <mxCell id="8cDULGTI0yvlnEvUJcVY-131" style="connectable=0;recursiveResize=0;strokeColor=#b85450;fillColor=#f8cecc;align=center;whiteSpace=wrap;html=1;" vertex="1" parent="8cDULGTI0yvlnEvUJcVY-104">
          <mxGeometry x="203" width="34" height="20" as="geometry">
            <mxRectangle width="34" height="20" as="alternateBounds" />
          </mxGeometry>
        </mxCell>
        <mxCell id="8cDULGTI0yvlnEvUJcVY-99" style="shape=tableRow;horizontal=0;startSize=0;swimlaneHead=0;swimlaneBody=0;top=0;left=0;bottom=0;right=0;dropTarget=0;collapsible=0;recursiveResize=0;expand=0;fontStyle=0;fillColor=none;strokeColor=inherit;" vertex="1" parent="8cDULGTI0yvlnEvUJcVY-53">
          <mxGeometry y="20" width="237" height="20" as="geometry" />
        </mxCell>
        <mxCell id="8cDULGTI0yvlnEvUJcVY-100" style="connectable=0;recursiveResize=0;strokeColor=#82b366;fillColor=#d5e8d4;align=center;whiteSpace=wrap;html=1;" vertex="1" parent="8cDULGTI0yvlnEvUJcVY-99">
          <mxGeometry width="34" height="20" as="geometry">
            <mxRectangle width="34" height="20" as="alternateBounds" />
          </mxGeometry>
        </mxCell>
        <mxCell id="8cDULGTI0yvlnEvUJcVY-101" style="connectable=0;recursiveResize=0;strokeColor=#82b366;fillColor=#d5e8d4;align=center;whiteSpace=wrap;html=1;" vertex="1" parent="8cDULGTI0yvlnEvUJcVY-99">
          <mxGeometry x="34" width="34" height="20" as="geometry">
            <mxRectangle width="34" height="20" as="alternateBounds" />
          </mxGeometry>
        </mxCell>
        <mxCell id="8cDULGTI0yvlnEvUJcVY-102" style="connectable=0;recursiveResize=0;strokeColor=#b85450;fillColor=#f8cecc;align=center;whiteSpace=wrap;html=1;" vertex="1" parent="8cDULGTI0yvlnEvUJcVY-99">
          <mxGeometry x="68" width="33" height="20" as="geometry">
            <mxRectangle width="33" height="20" as="alternateBounds" />
          </mxGeometry>
        </mxCell>
        <mxCell id="8cDULGTI0yvlnEvUJcVY-103" style="connectable=0;recursiveResize=0;strokeColor=#82b366;fillColor=#d5e8d4;align=center;whiteSpace=wrap;html=1;" vertex="1" parent="8cDULGTI0yvlnEvUJcVY-99">
          <mxGeometry x="101" width="34" height="20" as="geometry">
            <mxRectangle width="34" height="20" as="alternateBounds" />
          </mxGeometry>
        </mxCell>
        <mxCell id="8cDULGTI0yvlnEvUJcVY-110" style="connectable=0;recursiveResize=0;strokeColor=#b85450;fillColor=#f8cecc;align=center;whiteSpace=wrap;html=1;" vertex="1" parent="8cDULGTI0yvlnEvUJcVY-99">
          <mxGeometry x="135" width="34" height="20" as="geometry">
            <mxRectangle width="34" height="20" as="alternateBounds" />
          </mxGeometry>
        </mxCell>
        <mxCell id="8cDULGTI0yvlnEvUJcVY-121" style="connectable=0;recursiveResize=0;strokeColor=#82b366;fillColor=#d5e8d4;align=center;whiteSpace=wrap;html=1;" vertex="1" parent="8cDULGTI0yvlnEvUJcVY-99">
          <mxGeometry x="169" width="34" height="20" as="geometry">
            <mxRectangle width="34" height="20" as="alternateBounds" />
          </mxGeometry>
        </mxCell>
        <mxCell id="8cDULGTI0yvlnEvUJcVY-132" style="connectable=0;recursiveResize=0;strokeColor=#82b366;fillColor=#d5e8d4;align=center;whiteSpace=wrap;html=1;" vertex="1" parent="8cDULGTI0yvlnEvUJcVY-99">
          <mxGeometry x="203" width="34" height="20" as="geometry">
            <mxRectangle width="34" height="20" as="alternateBounds" />
          </mxGeometry>
        </mxCell>
        <mxCell id="8cDULGTI0yvlnEvUJcVY-94" style="shape=tableRow;horizontal=0;startSize=0;swimlaneHead=0;swimlaneBody=0;top=0;left=0;bottom=0;right=0;dropTarget=0;collapsible=0;recursiveResize=0;expand=0;fontStyle=0;fillColor=none;strokeColor=inherit;" vertex="1" parent="8cDULGTI0yvlnEvUJcVY-53">
          <mxGeometry y="40" width="237" height="20" as="geometry" />
        </mxCell>
        <mxCell id="8cDULGTI0yvlnEvUJcVY-95" style="connectable=0;recursiveResize=0;strokeColor=#82b366;fillColor=#d5e8d4;align=center;whiteSpace=wrap;html=1;" vertex="1" parent="8cDULGTI0yvlnEvUJcVY-94">
          <mxGeometry width="34" height="20" as="geometry">
            <mxRectangle width="34" height="20" as="alternateBounds" />
          </mxGeometry>
        </mxCell>
        <mxCell id="8cDULGTI0yvlnEvUJcVY-96" style="connectable=0;recursiveResize=0;strokeColor=#b85450;fillColor=#f8cecc;align=center;whiteSpace=wrap;html=1;" vertex="1" parent="8cDULGTI0yvlnEvUJcVY-94">
          <mxGeometry x="34" width="34" height="20" as="geometry">
            <mxRectangle width="34" height="20" as="alternateBounds" />
          </mxGeometry>
        </mxCell>
        <mxCell id="8cDULGTI0yvlnEvUJcVY-97" style="connectable=0;recursiveResize=0;strokeColor=#b85450;fillColor=#f8cecc;align=center;whiteSpace=wrap;html=1;" vertex="1" parent="8cDULGTI0yvlnEvUJcVY-94">
          <mxGeometry x="68" width="33" height="20" as="geometry">
            <mxRectangle width="33" height="20" as="alternateBounds" />
          </mxGeometry>
        </mxCell>
        <mxCell id="8cDULGTI0yvlnEvUJcVY-98" style="connectable=0;recursiveResize=0;strokeColor=#b85450;fillColor=#f8cecc;align=center;whiteSpace=wrap;html=1;" vertex="1" parent="8cDULGTI0yvlnEvUJcVY-94">
          <mxGeometry x="101" width="34" height="20" as="geometry">
            <mxRectangle width="34" height="20" as="alternateBounds" />
          </mxGeometry>
        </mxCell>
        <mxCell id="8cDULGTI0yvlnEvUJcVY-111" style="connectable=0;recursiveResize=0;strokeColor=inherit;fillColor=none;align=center;whiteSpace=wrap;html=1;" vertex="1" parent="8cDULGTI0yvlnEvUJcVY-94">
          <mxGeometry x="135" width="34" height="20" as="geometry">
            <mxRectangle width="34" height="20" as="alternateBounds" />
          </mxGeometry>
        </mxCell>
        <mxCell id="8cDULGTI0yvlnEvUJcVY-122" style="connectable=0;recursiveResize=0;strokeColor=inherit;fillColor=none;align=center;whiteSpace=wrap;html=1;" vertex="1" parent="8cDULGTI0yvlnEvUJcVY-94">
          <mxGeometry x="169" width="34" height="20" as="geometry">
            <mxRectangle width="34" height="20" as="alternateBounds" />
          </mxGeometry>
        </mxCell>
        <mxCell id="8cDULGTI0yvlnEvUJcVY-133" style="connectable=0;recursiveResize=0;strokeColor=inherit;fillColor=none;align=center;whiteSpace=wrap;html=1;" vertex="1" parent="8cDULGTI0yvlnEvUJcVY-94">
          <mxGeometry x="203" width="34" height="20" as="geometry">
            <mxRectangle width="34" height="20" as="alternateBounds" />
          </mxGeometry>
        </mxCell>
        <mxCell id="8cDULGTI0yvlnEvUJcVY-89" style="shape=tableRow;horizontal=0;startSize=0;swimlaneHead=0;swimlaneBody=0;top=0;left=0;bottom=0;right=0;dropTarget=0;collapsible=0;recursiveResize=0;expand=0;fontStyle=0;fillColor=none;strokeColor=inherit;" vertex="1" parent="8cDULGTI0yvlnEvUJcVY-53">
          <mxGeometry y="60" width="237" height="20" as="geometry" />
        </mxCell>
        <mxCell id="8cDULGTI0yvlnEvUJcVY-90" style="connectable=0;recursiveResize=0;strokeColor=inherit;fillColor=none;align=center;whiteSpace=wrap;html=1;" vertex="1" parent="8cDULGTI0yvlnEvUJcVY-89">
          <mxGeometry width="34" height="20" as="geometry">
            <mxRectangle width="34" height="20" as="alternateBounds" />
          </mxGeometry>
        </mxCell>
        <mxCell id="8cDULGTI0yvlnEvUJcVY-91" style="connectable=0;recursiveResize=0;strokeColor=inherit;fillColor=none;align=center;whiteSpace=wrap;html=1;" vertex="1" parent="8cDULGTI0yvlnEvUJcVY-89">
          <mxGeometry x="34" width="34" height="20" as="geometry">
            <mxRectangle width="34" height="20" as="alternateBounds" />
          </mxGeometry>
        </mxCell>
        <mxCell id="8cDULGTI0yvlnEvUJcVY-92" style="connectable=0;recursiveResize=0;strokeColor=inherit;fillColor=none;align=center;whiteSpace=wrap;html=1;" vertex="1" parent="8cDULGTI0yvlnEvUJcVY-89">
          <mxGeometry x="68" width="33" height="20" as="geometry">
            <mxRectangle width="33" height="20" as="alternateBounds" />
          </mxGeometry>
        </mxCell>
        <mxCell id="8cDULGTI0yvlnEvUJcVY-93" style="connectable=0;recursiveResize=0;strokeColor=inherit;fillColor=none;align=center;whiteSpace=wrap;html=1;" vertex="1" parent="8cDULGTI0yvlnEvUJcVY-89">
          <mxGeometry x="101" width="34" height="20" as="geometry">
            <mxRectangle width="34" height="20" as="alternateBounds" />
          </mxGeometry>
        </mxCell>
        <mxCell id="8cDULGTI0yvlnEvUJcVY-112" style="connectable=0;recursiveResize=0;strokeColor=inherit;fillColor=none;align=center;whiteSpace=wrap;html=1;" vertex="1" parent="8cDULGTI0yvlnEvUJcVY-89">
          <mxGeometry x="135" width="34" height="20" as="geometry">
            <mxRectangle width="34" height="20" as="alternateBounds" />
          </mxGeometry>
        </mxCell>
        <mxCell id="8cDULGTI0yvlnEvUJcVY-123" style="connectable=0;recursiveResize=0;strokeColor=inherit;fillColor=none;align=center;whiteSpace=wrap;html=1;" vertex="1" parent="8cDULGTI0yvlnEvUJcVY-89">
          <mxGeometry x="169" width="34" height="20" as="geometry">
            <mxRectangle width="34" height="20" as="alternateBounds" />
          </mxGeometry>
        </mxCell>
        <mxCell id="8cDULGTI0yvlnEvUJcVY-134" style="connectable=0;recursiveResize=0;strokeColor=inherit;fillColor=none;align=center;whiteSpace=wrap;html=1;" vertex="1" parent="8cDULGTI0yvlnEvUJcVY-89">
          <mxGeometry x="203" width="34" height="20" as="geometry">
            <mxRectangle width="34" height="20" as="alternateBounds" />
          </mxGeometry>
        </mxCell>
        <mxCell id="8cDULGTI0yvlnEvUJcVY-84" style="shape=tableRow;horizontal=0;startSize=0;swimlaneHead=0;swimlaneBody=0;top=0;left=0;bottom=0;right=0;dropTarget=0;collapsible=0;recursiveResize=0;expand=0;fontStyle=0;fillColor=none;strokeColor=inherit;" vertex="1" parent="8cDULGTI0yvlnEvUJcVY-53">
          <mxGeometry y="80" width="237" height="20" as="geometry" />
        </mxCell>
        <mxCell id="8cDULGTI0yvlnEvUJcVY-85" style="connectable=0;recursiveResize=0;strokeColor=inherit;fillColor=none;align=center;whiteSpace=wrap;html=1;" vertex="1" parent="8cDULGTI0yvlnEvUJcVY-84">
          <mxGeometry width="34" height="20" as="geometry">
            <mxRectangle width="34" height="20" as="alternateBounds" />
          </mxGeometry>
        </mxCell>
        <mxCell id="8cDULGTI0yvlnEvUJcVY-86" style="connectable=0;recursiveResize=0;strokeColor=inherit;fillColor=none;align=center;whiteSpace=wrap;html=1;" vertex="1" parent="8cDULGTI0yvlnEvUJcVY-84">
          <mxGeometry x="34" width="34" height="20" as="geometry">
            <mxRectangle width="34" height="20" as="alternateBounds" />
          </mxGeometry>
        </mxCell>
        <mxCell id="8cDULGTI0yvlnEvUJcVY-87" style="connectable=0;recursiveResize=0;strokeColor=inherit;fillColor=none;align=center;whiteSpace=wrap;html=1;" vertex="1" parent="8cDULGTI0yvlnEvUJcVY-84">
          <mxGeometry x="68" width="33" height="20" as="geometry">
            <mxRectangle width="33" height="20" as="alternateBounds" />
          </mxGeometry>
        </mxCell>
        <mxCell id="8cDULGTI0yvlnEvUJcVY-88" style="connectable=0;recursiveResize=0;strokeColor=inherit;fillColor=none;align=center;whiteSpace=wrap;html=1;" vertex="1" parent="8cDULGTI0yvlnEvUJcVY-84">
          <mxGeometry x="101" width="34" height="20" as="geometry">
            <mxRectangle width="34" height="20" as="alternateBounds" />
          </mxGeometry>
        </mxCell>
        <mxCell id="8cDULGTI0yvlnEvUJcVY-113" style="connectable=0;recursiveResize=0;strokeColor=inherit;fillColor=none;align=center;whiteSpace=wrap;html=1;" vertex="1" parent="8cDULGTI0yvlnEvUJcVY-84">
          <mxGeometry x="135" width="34" height="20" as="geometry">
            <mxRectangle width="34" height="20" as="alternateBounds" />
          </mxGeometry>
        </mxCell>
        <mxCell id="8cDULGTI0yvlnEvUJcVY-124" style="connectable=0;recursiveResize=0;strokeColor=inherit;fillColor=none;align=center;whiteSpace=wrap;html=1;" vertex="1" parent="8cDULGTI0yvlnEvUJcVY-84">
          <mxGeometry x="169" width="34" height="20" as="geometry">
            <mxRectangle width="34" height="20" as="alternateBounds" />
          </mxGeometry>
        </mxCell>
        <mxCell id="8cDULGTI0yvlnEvUJcVY-135" style="connectable=0;recursiveResize=0;strokeColor=inherit;fillColor=none;align=center;whiteSpace=wrap;html=1;" vertex="1" parent="8cDULGTI0yvlnEvUJcVY-84">
          <mxGeometry x="203" width="34" height="20" as="geometry">
            <mxRectangle width="34" height="20" as="alternateBounds" />
          </mxGeometry>
        </mxCell>
        <mxCell id="8cDULGTI0yvlnEvUJcVY-79" style="shape=tableRow;horizontal=0;startSize=0;swimlaneHead=0;swimlaneBody=0;top=0;left=0;bottom=0;right=0;dropTarget=0;collapsible=0;recursiveResize=0;expand=0;fontStyle=0;fillColor=none;strokeColor=inherit;" vertex="1" parent="8cDULGTI0yvlnEvUJcVY-53">
          <mxGeometry y="100" width="237" height="20" as="geometry" />
        </mxCell>
        <mxCell id="8cDULGTI0yvlnEvUJcVY-80" style="connectable=0;recursiveResize=0;strokeColor=inherit;fillColor=none;align=center;whiteSpace=wrap;html=1;" vertex="1" parent="8cDULGTI0yvlnEvUJcVY-79">
          <mxGeometry width="34" height="20" as="geometry">
            <mxRectangle width="34" height="20" as="alternateBounds" />
          </mxGeometry>
        </mxCell>
        <mxCell id="8cDULGTI0yvlnEvUJcVY-81" style="connectable=0;recursiveResize=0;strokeColor=inherit;fillColor=none;align=center;whiteSpace=wrap;html=1;" vertex="1" parent="8cDULGTI0yvlnEvUJcVY-79">
          <mxGeometry x="34" width="34" height="20" as="geometry">
            <mxRectangle width="34" height="20" as="alternateBounds" />
          </mxGeometry>
        </mxCell>
        <mxCell id="8cDULGTI0yvlnEvUJcVY-82" style="connectable=0;recursiveResize=0;strokeColor=inherit;fillColor=none;align=center;whiteSpace=wrap;html=1;" vertex="1" parent="8cDULGTI0yvlnEvUJcVY-79">
          <mxGeometry x="68" width="33" height="20" as="geometry">
            <mxRectangle width="33" height="20" as="alternateBounds" />
          </mxGeometry>
        </mxCell>
        <mxCell id="8cDULGTI0yvlnEvUJcVY-83" style="connectable=0;recursiveResize=0;strokeColor=inherit;fillColor=none;align=center;whiteSpace=wrap;html=1;" vertex="1" parent="8cDULGTI0yvlnEvUJcVY-79">
          <mxGeometry x="101" width="34" height="20" as="geometry">
            <mxRectangle width="34" height="20" as="alternateBounds" />
          </mxGeometry>
        </mxCell>
        <mxCell id="8cDULGTI0yvlnEvUJcVY-114" style="connectable=0;recursiveResize=0;strokeColor=inherit;fillColor=none;align=center;whiteSpace=wrap;html=1;" vertex="1" parent="8cDULGTI0yvlnEvUJcVY-79">
          <mxGeometry x="135" width="34" height="20" as="geometry">
            <mxRectangle width="34" height="20" as="alternateBounds" />
          </mxGeometry>
        </mxCell>
        <mxCell id="8cDULGTI0yvlnEvUJcVY-125" style="connectable=0;recursiveResize=0;strokeColor=inherit;fillColor=none;align=center;whiteSpace=wrap;html=1;" vertex="1" parent="8cDULGTI0yvlnEvUJcVY-79">
          <mxGeometry x="169" width="34" height="20" as="geometry">
            <mxRectangle width="34" height="20" as="alternateBounds" />
          </mxGeometry>
        </mxCell>
        <mxCell id="8cDULGTI0yvlnEvUJcVY-136" style="connectable=0;recursiveResize=0;strokeColor=inherit;fillColor=none;align=center;whiteSpace=wrap;html=1;" vertex="1" parent="8cDULGTI0yvlnEvUJcVY-79">
          <mxGeometry x="203" width="34" height="20" as="geometry">
            <mxRectangle width="34" height="20" as="alternateBounds" />
          </mxGeometry>
        </mxCell>
        <mxCell id="8cDULGTI0yvlnEvUJcVY-74" style="shape=tableRow;horizontal=0;startSize=0;swimlaneHead=0;swimlaneBody=0;top=0;left=0;bottom=0;right=0;dropTarget=0;collapsible=0;recursiveResize=0;expand=0;fontStyle=0;fillColor=none;strokeColor=inherit;" vertex="1" parent="8cDULGTI0yvlnEvUJcVY-53">
          <mxGeometry y="120" width="237" height="20" as="geometry" />
        </mxCell>
        <mxCell id="8cDULGTI0yvlnEvUJcVY-75" style="connectable=0;recursiveResize=0;strokeColor=inherit;fillColor=none;align=center;whiteSpace=wrap;html=1;" vertex="1" parent="8cDULGTI0yvlnEvUJcVY-74">
          <mxGeometry width="34" height="20" as="geometry">
            <mxRectangle width="34" height="20" as="alternateBounds" />
          </mxGeometry>
        </mxCell>
        <mxCell id="8cDULGTI0yvlnEvUJcVY-76" style="connectable=0;recursiveResize=0;strokeColor=inherit;fillColor=none;align=center;whiteSpace=wrap;html=1;" vertex="1" parent="8cDULGTI0yvlnEvUJcVY-74">
          <mxGeometry x="34" width="34" height="20" as="geometry">
            <mxRectangle width="34" height="20" as="alternateBounds" />
          </mxGeometry>
        </mxCell>
        <mxCell id="8cDULGTI0yvlnEvUJcVY-77" style="connectable=0;recursiveResize=0;strokeColor=inherit;fillColor=none;align=center;whiteSpace=wrap;html=1;" vertex="1" parent="8cDULGTI0yvlnEvUJcVY-74">
          <mxGeometry x="68" width="33" height="20" as="geometry">
            <mxRectangle width="33" height="20" as="alternateBounds" />
          </mxGeometry>
        </mxCell>
        <mxCell id="8cDULGTI0yvlnEvUJcVY-78" style="connectable=0;recursiveResize=0;strokeColor=inherit;fillColor=none;align=center;whiteSpace=wrap;html=1;" vertex="1" parent="8cDULGTI0yvlnEvUJcVY-74">
          <mxGeometry x="101" width="34" height="20" as="geometry">
            <mxRectangle width="34" height="20" as="alternateBounds" />
          </mxGeometry>
        </mxCell>
        <mxCell id="8cDULGTI0yvlnEvUJcVY-115" style="connectable=0;recursiveResize=0;strokeColor=inherit;fillColor=none;align=center;whiteSpace=wrap;html=1;" vertex="1" parent="8cDULGTI0yvlnEvUJcVY-74">
          <mxGeometry x="135" width="34" height="20" as="geometry">
            <mxRectangle width="34" height="20" as="alternateBounds" />
          </mxGeometry>
        </mxCell>
        <mxCell id="8cDULGTI0yvlnEvUJcVY-126" style="connectable=0;recursiveResize=0;strokeColor=inherit;fillColor=none;align=center;whiteSpace=wrap;html=1;" vertex="1" parent="8cDULGTI0yvlnEvUJcVY-74">
          <mxGeometry x="169" width="34" height="20" as="geometry">
            <mxRectangle width="34" height="20" as="alternateBounds" />
          </mxGeometry>
        </mxCell>
        <mxCell id="8cDULGTI0yvlnEvUJcVY-137" style="connectable=0;recursiveResize=0;strokeColor=inherit;fillColor=none;align=center;whiteSpace=wrap;html=1;" vertex="1" parent="8cDULGTI0yvlnEvUJcVY-74">
          <mxGeometry x="203" width="34" height="20" as="geometry">
            <mxRectangle width="34" height="20" as="alternateBounds" />
          </mxGeometry>
        </mxCell>
        <mxCell id="8cDULGTI0yvlnEvUJcVY-69" style="shape=tableRow;horizontal=0;startSize=0;swimlaneHead=0;swimlaneBody=0;top=0;left=0;bottom=0;right=0;dropTarget=0;collapsible=0;recursiveResize=0;expand=0;fontStyle=0;fillColor=none;strokeColor=inherit;" vertex="1" parent="8cDULGTI0yvlnEvUJcVY-53">
          <mxGeometry y="140" width="237" height="20" as="geometry" />
        </mxCell>
        <mxCell id="8cDULGTI0yvlnEvUJcVY-70" style="connectable=0;recursiveResize=0;strokeColor=inherit;fillColor=none;align=center;whiteSpace=wrap;html=1;" vertex="1" parent="8cDULGTI0yvlnEvUJcVY-69">
          <mxGeometry width="34" height="20" as="geometry">
            <mxRectangle width="34" height="20" as="alternateBounds" />
          </mxGeometry>
        </mxCell>
        <mxCell id="8cDULGTI0yvlnEvUJcVY-71" style="connectable=0;recursiveResize=0;strokeColor=inherit;fillColor=none;align=center;whiteSpace=wrap;html=1;" vertex="1" parent="8cDULGTI0yvlnEvUJcVY-69">
          <mxGeometry x="34" width="34" height="20" as="geometry">
            <mxRectangle width="34" height="20" as="alternateBounds" />
          </mxGeometry>
        </mxCell>
        <mxCell id="8cDULGTI0yvlnEvUJcVY-72" style="connectable=0;recursiveResize=0;strokeColor=inherit;fillColor=none;align=center;whiteSpace=wrap;html=1;" vertex="1" parent="8cDULGTI0yvlnEvUJcVY-69">
          <mxGeometry x="68" width="33" height="20" as="geometry">
            <mxRectangle width="33" height="20" as="alternateBounds" />
          </mxGeometry>
        </mxCell>
        <mxCell id="8cDULGTI0yvlnEvUJcVY-73" style="connectable=0;recursiveResize=0;strokeColor=inherit;fillColor=none;align=center;whiteSpace=wrap;html=1;" vertex="1" parent="8cDULGTI0yvlnEvUJcVY-69">
          <mxGeometry x="101" width="34" height="20" as="geometry">
            <mxRectangle width="34" height="20" as="alternateBounds" />
          </mxGeometry>
        </mxCell>
        <mxCell id="8cDULGTI0yvlnEvUJcVY-116" style="connectable=0;recursiveResize=0;strokeColor=inherit;fillColor=none;align=center;whiteSpace=wrap;html=1;" vertex="1" parent="8cDULGTI0yvlnEvUJcVY-69">
          <mxGeometry x="135" width="34" height="20" as="geometry">
            <mxRectangle width="34" height="20" as="alternateBounds" />
          </mxGeometry>
        </mxCell>
        <mxCell id="8cDULGTI0yvlnEvUJcVY-127" style="connectable=0;recursiveResize=0;strokeColor=inherit;fillColor=none;align=center;whiteSpace=wrap;html=1;" vertex="1" parent="8cDULGTI0yvlnEvUJcVY-69">
          <mxGeometry x="169" width="34" height="20" as="geometry">
            <mxRectangle width="34" height="20" as="alternateBounds" />
          </mxGeometry>
        </mxCell>
        <mxCell id="8cDULGTI0yvlnEvUJcVY-138" style="connectable=0;recursiveResize=0;strokeColor=inherit;fillColor=none;align=center;whiteSpace=wrap;html=1;" vertex="1" parent="8cDULGTI0yvlnEvUJcVY-69">
          <mxGeometry x="203" width="34" height="20" as="geometry">
            <mxRectangle width="34" height="20" as="alternateBounds" />
          </mxGeometry>
        </mxCell>
        <mxCell id="8cDULGTI0yvlnEvUJcVY-54" value="" style="shape=tableRow;horizontal=0;startSize=0;swimlaneHead=0;swimlaneBody=0;top=0;left=0;bottom=0;right=0;dropTarget=0;collapsible=0;recursiveResize=0;expand=0;fontStyle=0;fillColor=none;strokeColor=inherit;" vertex="1" parent="8cDULGTI0yvlnEvUJcVY-53">
          <mxGeometry y="160" width="237" height="20" as="geometry" />
        </mxCell>
        <mxCell id="8cDULGTI0yvlnEvUJcVY-66" style="connectable=0;recursiveResize=0;strokeColor=inherit;fillColor=none;align=center;whiteSpace=wrap;html=1;" vertex="1" parent="8cDULGTI0yvlnEvUJcVY-54">
          <mxGeometry width="34" height="20" as="geometry">
            <mxRectangle width="34" height="20" as="alternateBounds" />
          </mxGeometry>
        </mxCell>
        <mxCell id="8cDULGTI0yvlnEvUJcVY-55" value="" style="connectable=0;recursiveResize=0;strokeColor=inherit;fillColor=none;align=center;whiteSpace=wrap;html=1;" vertex="1" parent="8cDULGTI0yvlnEvUJcVY-54">
          <mxGeometry x="34" width="34" height="20" as="geometry">
            <mxRectangle width="34" height="20" as="alternateBounds" />
          </mxGeometry>
        </mxCell>
        <mxCell id="8cDULGTI0yvlnEvUJcVY-56" value="" style="connectable=0;recursiveResize=0;strokeColor=inherit;fillColor=none;align=center;whiteSpace=wrap;html=1;" vertex="1" parent="8cDULGTI0yvlnEvUJcVY-54">
          <mxGeometry x="68" width="33" height="20" as="geometry">
            <mxRectangle width="33" height="20" as="alternateBounds" />
          </mxGeometry>
        </mxCell>
        <mxCell id="8cDULGTI0yvlnEvUJcVY-57" value="" style="connectable=0;recursiveResize=0;strokeColor=inherit;fillColor=none;align=center;whiteSpace=wrap;html=1;" vertex="1" parent="8cDULGTI0yvlnEvUJcVY-54">
          <mxGeometry x="101" width="34" height="20" as="geometry">
            <mxRectangle width="34" height="20" as="alternateBounds" />
          </mxGeometry>
        </mxCell>
        <mxCell id="8cDULGTI0yvlnEvUJcVY-117" style="connectable=0;recursiveResize=0;strokeColor=inherit;fillColor=none;align=center;whiteSpace=wrap;html=1;" vertex="1" parent="8cDULGTI0yvlnEvUJcVY-54">
          <mxGeometry x="135" width="34" height="20" as="geometry">
            <mxRectangle width="34" height="20" as="alternateBounds" />
          </mxGeometry>
        </mxCell>
        <mxCell id="8cDULGTI0yvlnEvUJcVY-128" style="connectable=0;recursiveResize=0;strokeColor=inherit;fillColor=none;align=center;whiteSpace=wrap;html=1;" vertex="1" parent="8cDULGTI0yvlnEvUJcVY-54">
          <mxGeometry x="169" width="34" height="20" as="geometry">
            <mxRectangle width="34" height="20" as="alternateBounds" />
          </mxGeometry>
        </mxCell>
        <mxCell id="8cDULGTI0yvlnEvUJcVY-139" style="connectable=0;recursiveResize=0;strokeColor=inherit;fillColor=none;align=center;whiteSpace=wrap;html=1;" vertex="1" parent="8cDULGTI0yvlnEvUJcVY-54">
          <mxGeometry x="203" width="34" height="20" as="geometry">
            <mxRectangle width="34" height="20" as="alternateBounds" />
          </mxGeometry>
        </mxCell>
        <mxCell id="8cDULGTI0yvlnEvUJcVY-58" style="shape=tableRow;horizontal=0;startSize=0;swimlaneHead=0;swimlaneBody=0;top=0;left=0;bottom=0;right=0;dropTarget=0;collapsible=0;recursiveResize=0;expand=0;fontStyle=0;fillColor=none;strokeColor=inherit;" vertex="1" parent="8cDULGTI0yvlnEvUJcVY-53">
          <mxGeometry y="180" width="237" height="20" as="geometry" />
        </mxCell>
        <mxCell id="8cDULGTI0yvlnEvUJcVY-67" style="connectable=0;recursiveResize=0;strokeColor=inherit;fillColor=none;align=center;whiteSpace=wrap;html=1;" vertex="1" parent="8cDULGTI0yvlnEvUJcVY-58">
          <mxGeometry width="34" height="20" as="geometry">
            <mxRectangle width="34" height="20" as="alternateBounds" />
          </mxGeometry>
        </mxCell>
        <mxCell id="8cDULGTI0yvlnEvUJcVY-59" value="" style="connectable=0;recursiveResize=0;strokeColor=inherit;fillColor=none;align=center;whiteSpace=wrap;html=1;" vertex="1" parent="8cDULGTI0yvlnEvUJcVY-58">
          <mxGeometry x="34" width="34" height="20" as="geometry">
            <mxRectangle width="34" height="20" as="alternateBounds" />
          </mxGeometry>
        </mxCell>
        <mxCell id="8cDULGTI0yvlnEvUJcVY-60" value="" style="connectable=0;recursiveResize=0;strokeColor=inherit;fillColor=none;align=center;whiteSpace=wrap;html=1;" vertex="1" parent="8cDULGTI0yvlnEvUJcVY-58">
          <mxGeometry x="68" width="33" height="20" as="geometry">
            <mxRectangle width="33" height="20" as="alternateBounds" />
          </mxGeometry>
        </mxCell>
        <mxCell id="8cDULGTI0yvlnEvUJcVY-61" value="" style="connectable=0;recursiveResize=0;strokeColor=inherit;fillColor=none;align=center;whiteSpace=wrap;html=1;" vertex="1" parent="8cDULGTI0yvlnEvUJcVY-58">
          <mxGeometry x="101" width="34" height="20" as="geometry">
            <mxRectangle width="34" height="20" as="alternateBounds" />
          </mxGeometry>
        </mxCell>
        <mxCell id="8cDULGTI0yvlnEvUJcVY-118" style="connectable=0;recursiveResize=0;strokeColor=inherit;fillColor=none;align=center;whiteSpace=wrap;html=1;" vertex="1" parent="8cDULGTI0yvlnEvUJcVY-58">
          <mxGeometry x="135" width="34" height="20" as="geometry">
            <mxRectangle width="34" height="20" as="alternateBounds" />
          </mxGeometry>
        </mxCell>
        <mxCell id="8cDULGTI0yvlnEvUJcVY-129" style="connectable=0;recursiveResize=0;strokeColor=inherit;fillColor=none;align=center;whiteSpace=wrap;html=1;" vertex="1" parent="8cDULGTI0yvlnEvUJcVY-58">
          <mxGeometry x="169" width="34" height="20" as="geometry">
            <mxRectangle width="34" height="20" as="alternateBounds" />
          </mxGeometry>
        </mxCell>
        <mxCell id="8cDULGTI0yvlnEvUJcVY-140" style="connectable=0;recursiveResize=0;strokeColor=inherit;fillColor=none;align=center;whiteSpace=wrap;html=1;" vertex="1" parent="8cDULGTI0yvlnEvUJcVY-58">
          <mxGeometry x="203" width="34" height="20" as="geometry">
            <mxRectangle width="34" height="20" as="alternateBounds" />
          </mxGeometry>
        </mxCell>
        <mxCell id="8cDULGTI0yvlnEvUJcVY-62" style="shape=tableRow;horizontal=0;startSize=0;swimlaneHead=0;swimlaneBody=0;top=0;left=0;bottom=0;right=0;dropTarget=0;collapsible=0;recursiveResize=0;expand=0;fontStyle=0;fillColor=none;strokeColor=inherit;" vertex="1" parent="8cDULGTI0yvlnEvUJcVY-53">
          <mxGeometry y="200" width="237" height="20" as="geometry" />
        </mxCell>
        <mxCell id="8cDULGTI0yvlnEvUJcVY-68" style="connectable=0;recursiveResize=0;strokeColor=inherit;fillColor=none;align=center;whiteSpace=wrap;html=1;" vertex="1" parent="8cDULGTI0yvlnEvUJcVY-62">
          <mxGeometry width="34" height="20" as="geometry">
            <mxRectangle width="34" height="20" as="alternateBounds" />
          </mxGeometry>
        </mxCell>
        <mxCell id="8cDULGTI0yvlnEvUJcVY-63" value="" style="connectable=0;recursiveResize=0;strokeColor=inherit;fillColor=none;align=center;whiteSpace=wrap;html=1;" vertex="1" parent="8cDULGTI0yvlnEvUJcVY-62">
          <mxGeometry x="34" width="34" height="20" as="geometry">
            <mxRectangle width="34" height="20" as="alternateBounds" />
          </mxGeometry>
        </mxCell>
        <mxCell id="8cDULGTI0yvlnEvUJcVY-64" value="" style="connectable=0;recursiveResize=0;strokeColor=inherit;fillColor=none;align=center;whiteSpace=wrap;html=1;" vertex="1" parent="8cDULGTI0yvlnEvUJcVY-62">
          <mxGeometry x="68" width="33" height="20" as="geometry">
            <mxRectangle width="33" height="20" as="alternateBounds" />
          </mxGeometry>
        </mxCell>
        <mxCell id="8cDULGTI0yvlnEvUJcVY-65" value="" style="connectable=0;recursiveResize=0;strokeColor=inherit;fillColor=none;align=center;whiteSpace=wrap;html=1;" vertex="1" parent="8cDULGTI0yvlnEvUJcVY-62">
          <mxGeometry x="101" width="34" height="20" as="geometry">
            <mxRectangle width="34" height="20" as="alternateBounds" />
          </mxGeometry>
        </mxCell>
        <mxCell id="8cDULGTI0yvlnEvUJcVY-119" style="connectable=0;recursiveResize=0;strokeColor=inherit;fillColor=none;align=center;whiteSpace=wrap;html=1;" vertex="1" parent="8cDULGTI0yvlnEvUJcVY-62">
          <mxGeometry x="135" width="34" height="20" as="geometry">
            <mxRectangle width="34" height="20" as="alternateBounds" />
          </mxGeometry>
        </mxCell>
        <mxCell id="8cDULGTI0yvlnEvUJcVY-130" style="connectable=0;recursiveResize=0;strokeColor=inherit;fillColor=none;align=center;whiteSpace=wrap;html=1;" vertex="1" parent="8cDULGTI0yvlnEvUJcVY-62">
          <mxGeometry x="169" width="34" height="20" as="geometry">
            <mxRectangle width="34" height="20" as="alternateBounds" />
          </mxGeometry>
        </mxCell>
        <mxCell id="8cDULGTI0yvlnEvUJcVY-141" style="connectable=0;recursiveResize=0;strokeColor=inherit;fillColor=none;align=center;whiteSpace=wrap;html=1;" vertex="1" parent="8cDULGTI0yvlnEvUJcVY-62">
          <mxGeometry x="203" width="34" height="20" as="geometry">
            <mxRectangle width="34" height="20" as="alternateBounds" />
          </mxGeometry>
        </mxCell>
        <mxCell id="8cDULGTI0yvlnEvUJcVY-47" value="" style="swimlane;whiteSpace=wrap;html=1;" vertex="1" parent="1">
          <mxGeometry x="1320" y="490" width="250" height="240" as="geometry" />
        </mxCell>
        <mxCell id="8cDULGTI0yvlnEvUJcVY-51" value="" style="endArrow=none;html=1;rounded=0;" edge="1" parent="8cDULGTI0yvlnEvUJcVY-47">
          <mxGeometry width="50" height="50" relative="1" as="geometry">
            <mxPoint x="30" y="220" as="sourcePoint" />
            <mxPoint x="230" y="180" as="targetPoint" />
            <Array as="points">
              <mxPoint x="50" y="190" />
              <mxPoint x="80" y="170" />
              <mxPoint x="100" y="140" />
              <mxPoint x="130" y="120" />
              <mxPoint x="160" y="90" />
              <mxPoint x="180" y="120" />
              <mxPoint x="200" y="50" />
            </Array>
          </mxGeometry>
        </mxCell>
        <mxCell id="8cDULGTI0yvlnEvUJcVY-230" value="&lt;font style=&quot;font-size: 22px;&quot;&gt;15750&lt;/font&gt;" style="label;whiteSpace=wrap;html=1;image=img/clipart/Gear_128x128.png;align=center;" vertex="1" parent="1">
          <mxGeometry x="670" y="790" width="350" height="60" as="geometry" />
        </mxCell>
        <mxCell id="8cDULGTI0yvlnEvUJcVY-231" value="&lt;p style=&quot;line-height: 100%;&quot;&gt;&lt;span style=&quot;font-size: 28px;&quot;&gt;S&lt;/span&gt;&lt;/p&gt;&lt;p style=&quot;line-height: 100%;&quot;&gt;&lt;span style=&quot;font-size: 28px;&quot;&gt;C&lt;/span&gt;&lt;/p&gt;&lt;p style=&quot;line-height: 100%;&quot;&gt;&lt;span style=&quot;font-size: 28px;&quot;&gt;R&lt;/span&gt;&lt;/p&gt;&lt;p style=&quot;line-height: 100%;&quot;&gt;&lt;span style=&quot;font-size: 28px;&quot;&gt;A&lt;/span&gt;&lt;/p&gt;&lt;p style=&quot;line-height: 100%;&quot;&gt;&lt;span style=&quot;font-size: 28px;&quot;&gt;T&lt;/span&gt;&lt;/p&gt;&lt;p style=&quot;line-height: 100%;&quot;&gt;&lt;span style=&quot;font-size: 28px;&quot;&gt;C&lt;/span&gt;&lt;/p&gt;&lt;p style=&quot;line-height: 100%;&quot;&gt;&lt;span style=&quot;font-size: 28px;&quot;&gt;H&lt;/span&gt;&lt;/p&gt;&lt;p style=&quot;line-height: 100%;&quot;&gt;&lt;span style=&quot;font-size: 28px;&quot;&gt;-&lt;/span&gt;&lt;/p&gt;&lt;p style=&quot;line-height: 100%;&quot;&gt;&lt;span style=&quot;font-size: 28px;&quot;&gt;O&lt;/span&gt;&lt;/p&gt;&lt;p style=&quot;line-height: 100%;&quot;&gt;&lt;span style=&quot;font-size: 28px;&quot;&gt;F&lt;/span&gt;&lt;/p&gt;&lt;p style=&quot;line-height: 100%;&quot;&gt;&lt;span style=&quot;font-size: 28px;&quot;&gt;F&lt;/span&gt;&lt;/p&gt;" style="rounded=0;whiteSpace=wrap;html=1;fillColor=#ffe6cc;strokeColor=#d79b00;" vertex="1" parent="1">
          <mxGeometry x="1520" y="900" width="80" height="900" as="geometry" />
        </mxCell>
        <mxCell id="8cDULGTI0yvlnEvUJcVY-232" value="&lt;h1&gt;&lt;b&gt;Click&lt;/b&gt;&lt;/h1&gt;" style="rounded=1;whiteSpace=wrap;html=1;strokeWidth=3;" vertex="1" parent="1">
          <mxGeometry x="624.38" y="1250" width="243.75" height="220" as="geometry" />
        </mxCell>
        <mxCell id="8cDULGTI0yvlnEvUJcVY-233" value="&lt;b&gt;&lt;font style=&quot;font-size: 20px;&quot;&gt;upgrade&lt;/font&gt;&lt;/b&gt;" style="rounded=1;whiteSpace=wrap;html=1;strokeWidth=3;" vertex="1" parent="1">
          <mxGeometry x="626.25" y="1510" width="243.75" height="50" as="geometry" />
        </mxCell>
        <mxCell id="8cDULGTI0yvlnEvUJcVY-234" value="&lt;font style=&quot;font-size: 22px;&quot;&gt;15750&lt;/font&gt;" style="label;whiteSpace=wrap;html=1;image=img/clipart/Gear_128x128.png;align=center;" vertex="1" parent="1">
          <mxGeometry x="573.13" y="1690" width="350" height="60" as="geometry" />
        </mxCell>
        <mxCell id="8cDULGTI0yvlnEvUJcVY-235" value="$100" style="rounded=0;whiteSpace=wrap;html=1;strokeWidth=3;" vertex="1" parent="1">
          <mxGeometry x="685" y="1560" width="120" height="35" as="geometry" />
        </mxCell>
      </root>
    </mxGraphModel>
  </diagram>
</mxfile>
